<svg width="16" height="16" viewBox="0 0 16 16" fill="none" xmlns="http://www.w3.org/2000/svg">
<path d="M4.74998 12.8035C3.92498 12.8035 3.25749 13.4946 3.25749 14.3392C3.25749 15.1839 3.92498 15.875 4.74998 15.875C5.57498 15.875 6.24997 15.1839 6.24997 14.3392C6.24997 13.4946 5.57498 12.8035 4.74998 12.8035ZM0.25 0.517822V2.05354H1.74999L4.44998 7.88157L3.43749 9.76282C3.31749 9.97782 3.24999 10.2312 3.24999 10.5C3.24999 11.3446 3.92498 12.0357 4.74998 12.0357H13.7499V10.5H5.06498C4.95998 10.5 4.87748 10.4155 4.87748 10.308L4.89998 10.2159L5.57498 8.96425H11.1625C11.725 8.96425 12.2199 8.64943 12.4749 8.17335L15.1599 3.18996C15.2199 3.08246 15.2499 2.95193 15.2499 2.82139C15.2499 2.39907 14.9124 2.05354 14.4999 2.05354H3.40749L2.70249 0.517822H0.25ZM12.2499 12.8035C11.425 12.8035 10.7575 13.4946 10.7575 14.3392C10.7575 15.1839 11.425 15.875 12.2499 15.875C13.0749 15.875 13.7499 15.1839 13.7499 14.3392C13.7499 13.4946 13.0749 12.8035 12.2499 12.8035Z" fill="white"/>
</svg>
