<svg width="16" height="16" viewBox="0 0 16 16" fill="none" xmlns="http://www.w3.org/2000/svg">
<path d="M5.06498 11H13.2499V11.5357H4.74998C4.21215 11.5357 3.74999 11.0796 3.74999 10.5C3.74999 10.3147 3.79652 10.1455 3.87409 10.0065L3.87414 10.0065L3.87777 9.99978L4.89026 8.11853L5.00879 7.89831L4.90366 7.67139L2.20367 1.84336L2.06941 1.55354H1.74999H0.75V1.01782H2.38185L2.95308 2.26214L3.08685 2.55354H3.40749H14.4999C14.6253 2.55354 14.7499 2.66406 14.7499 2.82139C14.7499 2.87988 14.7357 2.92405 14.7233 2.94628L14.7233 2.94625L14.7198 2.9528L12.0348 7.93619L12.0342 7.93727C11.8627 8.25739 11.5333 8.46425 11.1625 8.46425H5.57498H5.27655L5.1349 8.72691L4.4599 9.97851L4.42946 10.035L4.41425 10.0972L4.39175 10.1894L4.37748 10.2478V10.308C4.37748 10.6805 4.67281 11 5.06498 11ZM3.75749 14.3392C3.75749 13.7563 4.21537 13.3035 4.74998 13.3035C5.28781 13.3035 5.74997 13.7596 5.74997 14.3392C5.74997 14.9189 5.28781 15.375 4.74998 15.375C4.21537 15.375 3.75749 14.9222 3.75749 14.3392ZM11.2575 14.3392C11.2575 13.7563 11.7153 13.3035 12.2499 13.3035C12.7878 13.3035 13.2499 13.7596 13.2499 14.3392C13.2499 14.9189 12.7878 15.375 12.2499 15.375C11.7153 15.375 11.2575 14.9222 11.2575 14.3392Z" fill="white" stroke="black"/>
</svg>
