<svg width="19" height="19" viewBox="0 0 19 19" fill="none" xmlns="http://www.w3.org/2000/svg">
<path d="M4.35901 8.3438C5.73501 11.048 7.9519 13.2554 10.6561 14.6409L12.7583 12.5387C13.0163 12.2807 13.3986 12.1947 13.733 12.3094C14.8032 12.6629 15.9595 12.854 17.1443 12.854C17.6699 12.854 18.0999 13.284 18.0999 13.8096V17.1445C18.0999 17.67 17.6699 18.1 17.1443 18.1C8.17168 18.1 0.899902 10.8282 0.899902 1.85558C0.899902 1.33002 1.3299 0.900024 1.85546 0.900024H5.1999C5.72546 0.900024 6.15546 1.33002 6.15546 1.85558C6.15546 3.05002 6.34657 4.19669 6.70012 5.26691C6.80524 5.60136 6.72879 5.97402 6.46124 6.24158L4.35901 8.3438Z" fill="#3F3F3F"/>
</svg>
