<svg width="14" height="12" viewBox="0 0 14 12" fill="none" xmlns="http://www.w3.org/2000/svg">
<path d="M2.78564 6C2.78564 5.0111 3.07889 4.0444 3.6283 3.22215C4.1777 2.39991 4.9586 1.75904 5.87223 1.38061C6.78586 1.00217 7.79119 0.90315 8.76109 1.09608C9.731 1.289 10.6219 1.76521 11.3212 2.46447C12.0204 3.16373 12.4966 4.05465 12.6896 5.02455C12.8825 5.99445 12.7835 6.99979 12.405 7.91342C12.0266 8.82705 11.3857 9.60794 10.5635 10.1573C9.74125 10.7068 8.77455 11 7.78564 11M2.78564 6L0.99993 3.85714M2.78564 6L5.28565 4.21429" stroke="#FF8B02" stroke-width="1.5"/>
</svg>
