<svg width="139" height="12" viewBox="0 0 139 12" fill="none" xmlns="http://www.w3.org/2000/svg">
<path d="M0 11.8403H2.10631V7.55795C2.12251 4.34622 2.15491 3.37152 2.30073 3.6112C2.86782 4.61786 7.40447 10.4022 7.63131 10.4022C7.90675 10.4022 11.9897 5.24103 12.735 3.96273L13.1239 3.29162V11.8403H15.7163V0.0159788H13.4804L10.6936 3.62718C8.63585 6.27965 7.85814 7.19044 7.71232 7.04663C7.61511 6.95076 6.33512 5.35288 4.86071 3.48337L2.17112 0.0958725L0 0V11.8403Z" fill="#3F3F3F"/>
<path d="M43.4224 11.8403H46.1768V9.28366C46.1768 7.87753 46.2092 6.72706 46.2578 6.72706C46.2902 6.72706 47.959 7.87753 49.9519 9.28366L53.5812 11.8403H55.6389C56.9189 11.8403 57.6642 11.7763 57.5994 11.6805C57.5508 11.6006 55.6065 10.2264 53.3058 8.61255C50.9889 7.01467 49.0932 5.65648 49.0932 5.59256C49.0932 5.52865 50.762 4.31426 52.8197 2.89215C54.8612 1.47004 56.5787 0.239681 56.6435 0.159787C56.6921 0.079893 55.963 0.0159779 54.8774 0.0159779H53.0304L46.2578 4.96939L46.1606 0.0159779H43.4224V11.8403Z" fill="#3F3F3F"/>
<path d="M18.6326 12H19.4104C20.1557 11.984 20.2205 11.9361 23.2503 9.41144L26.3288 6.85484L26.3774 9.42742L26.4098 12H28.3541V3.85083H27.5763C26.7986 3.85083 26.75 3.88279 23.7202 6.39146L20.6579 8.93208L20.6093 6.39146L20.5769 3.85083H18.6326V12Z" fill="#3F3F3F"/>
<path d="M31.1733 4.04258C30.9788 4.12247 30.7358 4.37813 30.6386 4.58586C30.4442 5.0013 30.3794 10.514 30.5576 11.1691C30.7682 11.9201 31.2705 12 35.4831 12C39.9387 12 40.2142 11.9361 40.4896 10.9134C40.7165 10.1305 40.7165 5.70437 40.4896 4.92141C40.2142 3.93073 39.8577 3.85083 35.3697 3.86681C33.0689 3.86681 31.3677 3.94671 31.1733 4.04258ZM38.3995 10.2423H32.5667V5.6085H38.3995V10.2423Z" fill="#3F3F3F"/>
<path d="M58.4905 12H67.0777V10.2423H60.7588V8.64446H64.3233V7.04659H60.7588V5.6085H67.0777V3.85083H58.4905V12Z" fill="#3F3F3F"/>
<path d="M68.6979 12H70.788L70.8852 9.04393L76.8315 8.88414L77.2203 8.43674C77.5768 8.03727 77.6092 7.84552 77.6092 6.48733C77.6092 4.82554 77.4472 4.29824 76.8477 4.0266C76.6046 3.91475 75.0816 3.85083 72.5865 3.85083H68.6979V12ZM75.6325 6.07188C75.6649 6.26363 75.6487 6.61516 75.6001 6.82288C75.5029 7.20637 75.4867 7.20637 73.1535 7.20637H70.8042V5.59252L73.2021 5.64045C75.5677 5.68839 75.5839 5.68839 75.6325 6.07188Z" fill="#3F3F3F"/>
<path d="M84.0416 4.20237C83.912 4.41009 82.9561 6.07188 81.9029 7.92542C80.8498 9.77895 79.8938 11.4407 79.7804 11.6325L79.5536 12H81.8219L82.6968 10.2423H87.59L88.0598 11.1212L88.5459 12H89.7287C90.4254 12 90.8952 11.9361 90.8628 11.8402C90.8466 11.7603 89.7935 9.92276 88.5459 7.78161L86.2776 3.86681L85.273 3.85083C84.3981 3.85083 84.2361 3.89877 84.0416 4.20237ZM85.9211 7.12648C86.2452 7.79759 86.5206 8.37282 86.5206 8.40478C86.5206 8.45272 85.9049 8.48467 85.1434 8.48467C84.3819 8.48467 83.7662 8.45272 83.7662 8.40478C83.7662 8.21303 85.0948 5.92807 85.2082 5.92807C85.273 5.92807 85.5809 6.47135 85.9211 7.12648Z" fill="#3F3F3F"/>
<path d="M92.3534 12H93.9736V9.52329C93.9736 8.1651 94.0222 7.04659 94.1032 7.04659C94.168 7.06256 94.8971 7.95737 95.7235 9.04393C96.728 10.3861 97.3275 11.0413 97.5219 11.0413C97.7326 11.0413 98.3482 10.3702 99.3852 9.02795L100.941 6.99865V12H103.047V3.85083H101.281L99.4662 6.18373L97.6515 8.53261L97.3599 8.14912C97.2141 7.9414 96.404 6.90278 95.5614 5.84818L94.0384 3.93073L92.3534 3.83486V12Z" fill="#3F3F3F"/>
<path d="M104.991 12H105.785C106.579 12 106.595 11.984 109.641 9.45938L112.687 6.91876L112.736 9.45938L112.768 12H114.713V3.85083H113.967C113.254 3.85083 113.141 3.93073 110.37 6.21569C108.799 7.50997 107.389 8.66044 107.26 8.75631C107.049 8.9161 107.017 8.62848 107.081 6.39146L107.13 3.85083H104.991V12Z" fill="#3F3F3F"/>
<path d="M116.819 12H118.925V10.4021C118.925 9.52329 118.974 8.80425 119.055 8.80425C119.12 8.82023 120.157 9.53927 121.356 10.4021L123.543 12H127.091L125.973 11.2011C125.358 10.7696 123.997 9.81091 122.96 9.09187C121.906 8.37282 121.08 7.73367 121.129 7.66976C121.161 7.60584 122.36 6.74299 123.802 5.75231L126.411 3.93073L123.284 3.83486L121.194 5.36882C120.043 6.19971 119.071 6.8868 119.022 6.8868C118.974 6.8868 118.925 6.19971 118.925 5.36882V3.85083H116.819V12Z" fill="#3F3F3F"/>
<path d="M132.163 3.96268C131.401 5.24099 127.675 11.8562 127.675 11.9201C127.675 11.968 128.144 12 128.728 12H129.781L130.656 10.2423H135.614L136.489 12H139L134.237 3.85083H133.232C132.681 3.85083 132.195 3.89877 132.163 3.96268ZM133.961 7.20637L134.658 8.48467H131.709L132.389 7.20637C132.778 6.50331 133.119 5.92807 133.167 5.92807C133.216 5.92807 133.572 6.50331 133.961 7.20637Z" fill="#3F3F3F"/>
</svg>
